<svg width="15" height="15" viewBox="0 0 15 15" fill="none" xmlns="http://www.w3.org/2000/svg">
<path d="M13.6364 7.50001C13.6364 10.889 10.889 13.6364 7.50001 13.6364C4.11099 13.6364 1.36365 10.889 1.36365 7.50001C1.36365 4.11099 4.11099 1.36365 7.50001 1.36365C10.889 1.36365 13.6364 4.11099 13.6364 7.50001Z" fill="#342546"/>
<path d="M13.6364 7.5C13.6364 4.11098 10.889 1.36364 7.5 1.36364C4.11098 1.36364 1.36364 4.11098 1.36364 7.5C1.36364 10.889 4.11098 13.6364 7.5 13.6364C10.889 13.6364 13.6364 10.889 13.6364 7.5ZM15 7.5C15 11.6421 11.6421 15 7.5 15C3.35786 15 0 11.6421 0 7.5C0 3.35786 3.35786 0 7.5 0C11.6421 0 15 3.35786 15 7.5Z" fill="#FFF062"/>
<path d="M7.49978 4.77271C8.44708 4.77271 9.21553 5.54061 9.21562 6.48791V6.57579C9.21562 7.1954 9.70567 7.78459 9.70567 8.40421C9.70552 8.85576 9.38258 9.24302 8.93531 9.30509C8.49099 9.3667 7.93555 9.42894 7.49978 9.42894C7.06411 9.42892 6.50914 9.36668 6.06492 9.30509C5.6176 9.24306 5.29471 8.85579 5.29456 8.40421C5.29456 7.78426 5.78461 7.19442 5.78461 6.57446V6.48791C5.7847 5.5407 6.55259 4.77284 7.49978 4.77271Z" fill="#FFF062"/>
<path d="M8.70432 6.48791C8.70423 5.82323 8.16491 5.28408 7.49982 5.28408C6.83501 5.28421 6.29608 5.82315 6.29599 6.48791V6.57447C6.29598 7.00193 6.12786 7.39922 6.01367 7.6811C5.88283 8.0041 5.80593 8.21183 5.80593 8.4042L5.81259 8.47944C5.843 8.65004 5.97477 8.77602 6.13485 8.79837C6.5752 8.85943 7.10134 8.91754 7.49982 8.91756C7.89833 8.91756 8.42446 8.85942 8.86479 8.79837C9.02506 8.77613 9.15728 8.65011 9.18772 8.47944L9.19438 8.4042C9.19438 8.21213 9.11744 8.00507 8.98664 7.68243C8.87246 7.40079 8.70433 7.0033 8.70432 6.57581V6.48791ZM9.72705 6.57581C9.72706 6.76787 9.80399 6.97493 9.93479 7.29757C10.049 7.57921 10.2171 7.9767 10.2171 8.4042C10.2169 9.09915 9.71728 9.71293 9.00595 9.81178H9.00528C8.55707 9.87392 7.97266 9.94028 7.49982 9.94028C7.02708 9.94027 6.4431 9.8739 5.99503 9.81178C5.32781 9.71926 4.84679 9.17391 4.7892 8.53337L4.7832 8.4042C4.7832 7.97674 4.95133 7.57945 5.06552 7.29757C5.19636 6.97458 5.27326 6.76684 5.27326 6.57447V6.48791C5.27338 5.2583 6.27028 4.26153 7.49982 4.26135C8.72935 4.26135 9.72693 5.25803 9.72705 6.48791V6.57581Z" fill="#FFF062"/>
<path d="M7.31288 9.79734C7.15658 9.56228 6.83957 9.49809 6.60443 9.65418C6.36931 9.81051 6.30507 10.1281 6.46127 10.3633C6.68373 10.6979 7.06591 10.9206 7.49998 10.9206C7.93403 10.9206 8.31624 10.6979 8.53869 10.3633C8.69485 10.1281 8.63063 9.8105 8.39553 9.65418C8.16038 9.49802 7.84273 9.56224 7.68641 9.79734C7.64545 9.85878 7.5772 9.89786 7.49998 9.89788C7.42263 9.89788 7.35383 9.85893 7.31288 9.79734Z" fill="#FFF062"/>
</svg>
