<svg width="21" height="21" viewBox="0 0 21 21" fill="none" xmlns="http://www.w3.org/2000/svg">
<path d="M21 10.5C21 16.299 16.299 21 10.5 21C4.70101 21 0 16.299 0 10.5C0 4.70101 4.70101 0 10.5 0C16.299 0 21 4.70101 21 10.5Z" fill="#AFA6CA"/>
<path d="M15.3129 7.10296C15.7537 6.66237 16.4683 6.66222 16.909 7.10296C17.3496 7.5437 17.3496 8.25831 16.909 8.69908L9.93042 15.6777C9.48964 16.1181 8.77499 16.1182 8.33429 15.6777L4.84553 12.1878C4.4049 11.747 4.40478 11.0325 4.84553 10.5917C5.2863 10.1514 6.00096 10.1512 6.44165 10.5917L9.13235 13.2824L15.3129 7.10296Z" fill="#342546" stroke="#342546"/>
</svg>
