<svg width="31" height="31" viewBox="0 0 31 31" fill="none" xmlns="http://www.w3.org/2000/svg">
<path d="M31 15.4994C31 24.0596 24.0607 30.9997 15.5006 31C6.94027 31 -8.96942e-08 24.0597 -1.91775e-07 15.4994C0.000276412 6.93926 6.94044 2.86907e-07 15.5006 1.84828e-07C24.0606 0.000276793 30.9997 6.93943 31 15.4994ZM22.3924 11.4466C22.2293 9.84306 20.8744 8.59164 19.2279 8.59144L13.0008 8.59144C11.9469 8.59144 11.0912 9.44709 11.0912 10.5011C11.0918 11.5544 11.9462 12.408 12.9996 12.4082L15.8932 12.4082L9.15054 19.1509C8.40538 19.8962 8.40531 21.1042 9.15054 21.8495C9.89577 22.5947 11.1038 22.5946 11.8491 21.8495L18.5918 15.1068L18.5918 18.0004C18.592 19.054 19.4466 19.9085 20.5002 19.9088C21.5539 19.9085 22.4086 19.0529 22.4086 17.9992L22.4086 11.7721L22.3924 11.4466Z" fill="#FFF062"/>
</svg>
