<?xml version="1.0" encoding="UTF-8"?>
<svg id="Vrstva_2" data-name="Vrstva 2" xmlns="http://www.w3.org/2000/svg" viewBox="0 0 309.83 334.57">
  <defs>
    <style>
      .cls-1 {
        fill: #2e213d;
      }

      .cls-2 {
        fill: #fff062;
      }
    </style>
  </defs>
  <g id="Vrstva_1-2" data-name="Vrstva 1">
    <g>
      <path class="cls-2" d="M128.58,334.42c-25.36-4.03-63.83-21.23-105.7-97.09C10.82,215.48-3.11,202.43.61,152.19,5.96,79.97,75.52,57.79,163.87,70.71c64.73,9.47,123.08,34.98,136.31,90.43,9.09,38.1-20.94,102.85-62.69,132.47-47.35,33.6-62.41,42.27-108.91,40.81h0Z"/>
      <path class="cls-2" d="M25.14,131.24c-4.65-29.79-11.75-80.4-8.62-112.99C18.17,1.08,34.2-6.94,43.73,7.44c33.18,50.1,86.77,71.37,111.36,102.41,7.35,9.28,3.35,29.54-11.94,30.7l-98.4,7.51c-10.06.77-18.05-6.86-19.6-16.82Z"/>
      <path class="cls-1" d="M183.96,241.83c-3.3-.92-6.43-2.4-9.07-4.36-17.2-12.77-17.71-29.88-11.49-45.83,7.03-18.04,23.25-22.6,46.95-16.24,17.36,4.66,32.51,13.38,34.45,28.55,2.67,20.86-10.58,43.62-38.19,43.29-2.37-.03-4.77-.41-7.1-1.07l-15.55-4.35Z"/>
      <path class="cls-1" d="M81.07,228.07c-3.39-.53-6.66-1.65-9.51-3.33-18.54-10.92-20.95-28.36-16.55-45.45,4.98-19.34,20.6-26.03,44.88-22.48,17.79,2.6,33.82,9.63,37.45,24.9,4.99,21.01-5.65,45.94-33.15,49.06-2.36.27-4.79.17-7.18-.2l-15.95-2.51Z"/>
      <path class="cls-2" d="M212.45,108.64c12.35,18.2,33.86,48.62,52.83,63.39,9.99,7.78,24.8,1.86,23.67-11.48-3.93-46.47,20.64-90.92,20.88-122.23.07-9.36-13.08-17.25-23.84-8.29l-69.24,57.71c-7.08,5.9-8.43,14.81-4.3,20.9Z"/>
    </g>
  </g>
</svg>