<?xml version="1.0" encoding="UTF-8"?>
<svg id="Vrstva_2" data-name="Vrstva 2" xmlns="http://www.w3.org/2000/svg" viewBox="0 0 327.28 204.36">
  <defs>
    <style>
      .cls-1 {
        fill: #2e213d;
      }

      .cls-2 {
        fill: #fff062;
      }
    </style>
  </defs>
  <g id="Vrstva_1-2" data-name="Vrstva 1">
    <g>
      <path class="cls-2" d="M61.6.5c3.78-.1,7.4-.21,10.71-.5,65.53,12.51,137.75,11.92,202.52,25.6,30.94,6.54,54.65,17.27,52.28,57.39-1.16,19.63-7.86,79.4-14.69,95.12-11.82,27.24-42.3,27.13-65.26,25.79-56.84-3.31-138.16-13.3-193.9-24.41-4.34-.87-9.32-1.96-14.5-3.41C12.83,168.83-3.48,140.61.63,110.63l7.92-57.67C12.6,23.52,35.17,1.21,61.6.5Z"/>
      <path class="cls-1" d="M174.71,94.31c-1.97-.73-3.78-1.81-5.28-3.19-9.72-8.95-8.92-19.98-4.08-29.99,5.48-11.32,15.71-13.58,29.83-8.49,10.34,3.73,19.06,9.98,19.27,19.83.29,13.55-9.31,27.64-26.21,26.27-1.45-.12-2.9-.47-4.28-.98l-9.25-3.45Z"/>
      <path class="cls-1" d="M265.18,97.76c-2.09.17-4.2-.03-6.13-.64-12.6-3.96-16.57-14.29-16.45-25.41.14-12.58,8.45-18.97,23.39-20.37,10.95-1.02,21.49.92,25.87,9.75,6.02,12.14,3.33,28.98-12.55,34.93-1.36.51-2.82.81-4.29.93l-9.84.81Z"/>
    </g>
  </g>
</svg>