<?xml version="1.0" encoding="UTF-8"?>
<svg id="Vrstva_2" data-name="Vrstva 2" xmlns="http://www.w3.org/2000/svg" viewBox="0 0 413.47 561.6">
  <defs>
    <style>
      .cls-1 {
        fill: #2e213d;
      }

      .cls-2 {
        fill: #fff062;
      }
    </style>
  </defs>
  <g id="Vrstva_1-2" data-name="Vrstva 1">
    <g>
      <path class="cls-2" d="M390.46,267c114.49,244.08-245.59,420.49-368.29,180.47C-92.31,203.4,267.76,26.99,390.46,267Z"/>
      <path class="cls-2" d="M391.3,267c114.49,244.08-245.59,420.49-368.29,180.47C-91.48,203.4,268.6,26.99,391.3,267Z"/>
      <path class="cls-1" d="M185.95,317.06c11.34,90.05-143.7,112.69-158.58,23.17-11.34-90.04,143.7-112.68,158.58-23.17Z"/>
      <path class="cls-1" d="M356.18,263.43c8.83,86.12-140.56,104.45-152.81,18.76-8.83-86.11,140.56-104.44,152.81-18.76Z"/>
      <path class="cls-2" d="M366.96,85.53c-16.38,97.63-161.98,75.73-148.92-22.39,16.38-97.63,161.98-75.73,148.92,22.39Z"/>
      <path class="cls-2" d="M367.21,85.7c-16.38,97.63-161.98,75.73-148.92-22.39,16.38-97.63,161.98-75.73,148.92,22.39Z"/>
      <path class="cls-1" d="M288.87,102.05c-4.76,27.83-54.15,20.4-50.52-7.59,4.76-27.82,54.15-20.4,50.52,7.59Z"/>
      <path class="cls-1" d="M346.65,113.52c-4.57,26.73-52.02,19.6-48.53-7.29,4.57-26.73,52.02-19.6,48.53,7.29Z"/>
    </g>
  </g>
</svg>