<svg width="69" height="178" viewBox="0 0 69 178" fill="none" xmlns="http://www.w3.org/2000/svg">
<path d="M32.4833 177.453C39.4008 177.8 46.1122 175.228 51.2348 170.488C51.2663 170.46 51.2956 170.432 51.327 170.404C57.7618 164.51 58.0676 135.991 58.7172 127.596C57.4102 97.0898 56.0176 114.838 55.4173 71.4683C55.3516 66.6408 56.8427 53.4672 54.499 49.8796C53.1362 47.7965 51.012 48.3649 49.9458 50.4263C48.3939 53.4293 50.2254 57.378 46.1295 58.9781C41.8587 56.3097 49.2655 49.6769 46.974 45.7718C41.4781 42.1234 43.2127 54.4834 41.8758 55.4093C37.3998 55.8598 37.8948 49.5775 38.2767 46.5012C39.1152 39.7619 44.3218 29.7593 43.6257 23.5347C43.5615 22.9711 42.9814 21.252 42.6372 20.9062C41.1662 19.429 38.9446 20.3605 37.9016 21.8784C35.0781 25.9919 36.4123 41.9652 35.7591 47.8397C35.5401 49.8186 34.9562 54.7271 32.0853 53.8195C30.5739 53.0415 30.4903 50.3031 30.4118 48.7043C30.0949 42.2489 32.4612 25.5214 29.6528 20.7442C28.4346 18.6715 26.0124 18.3913 24.3964 20.1617C20.2697 24.6712 26.4087 39.3841 27.0731 45.2288C27.3703 47.8547 27.7806 55.345 23.726 55.1287C18.0495 54.8251 25.7532 40.27 19.7829 40.7904C14.1799 41.2803 18.6066 58.167 17.0887 59.3824L15.6811 59.3274C14.7665 58.7213 16.6437 44.9758 10.5563 49.5986C6.73097 52.5037 8.99492 65.6827 9.07915 70.2253C9.90466 115.04 8.62854 87.2994 5.81465 126.157C6.23943 138.42 5.52859 169.251 16.7644 175.125C17.1801 175.341 17.9325 175.604 18.7246 175.861C20.8615 176.56 23.0782 176.973 25.3205 177.085L28.9053 177.266L32.4901 177.446L32.4833 177.453Z" fill="#FFF062"/>
<path d="M46.2545 34.8658C47.5311 33.5615 49.2576 30.0992 50.0461 28.3315C51.3175 25.4772 52.5176 17.4272 56.4876 18.2723C60.9639 19.2267 58.9692 24.9521 55.2137 25.0426C55.1304 26.2869 56.5561 27.3192 57.5551 27.8049C67.9132 32.8372 73.308 14.3744 62.7343 8.94395C55.9565 5.46462 48.1024 9.08631 46.787 16.7675C45.7126 23.0457 46.6187 29.8779 43.3247 35.7719C43.0002 37.5875 45.8056 35.3245 46.2522 34.868L46.2545 34.8658Z" fill="#FFF062"/>
<path d="M7.49341 33.011C12.0249 34.5333 14.9913 29.4134 20.5509 33.311C21.3784 33.8904 21.7389 35.0328 22.5548 35.4691C22.6786 28.702 15.8357 23.1135 9.28208 24.5306C4.96666 25.4648 4.60004 32.0382 7.49341 33.011Z" fill="#FFF062"/>
<path d="M26.4372 17.68C33.3556 16.9103 31.9224 5.85169 24.6277 7.15553C18.6848 8.21852 19.6618 18.4333 26.4372 17.68Z" fill="#FFF062"/>
<path d="M63.6373 42.5053C59.5686 39.9136 53.7135 42.8009 51.2644 46.534C55.5531 45.6146 59.0023 51.9721 63.2306 49.5147C65.7471 48.0513 66.1692 44.1175 63.6373 42.5053Z" fill="#FFF062"/>
<path d="M3.84033 39.8679C4.76967 39.9147 6.20167 42.2048 7.41896 40.1563L7.01367 37.7996C7.07005 37.2436 8.54365 37.791 8.44736 35.9509C8.32511 33.5972 5.68342 35.646 5.65529 32.6369L3.36993 32.5766C3.25635 35.3835 0.570252 33.7092 0.0311038 35.8425C-0.250877 36.9634 1.47422 37.1294 1.68537 37.4449C1.93879 37.8218 0.265364 40.1058 1.93798 40.7632C3.73657 41.4708 3.60358 39.8572 3.84027 39.8701L3.84033 39.8679Z" fill="#FFF062"/>
<path d="M19.8284 5.30059C22.6996 1.87522 17.4777 -1.931 15.2181 1.11134C12.9379 4.1799 17.2382 8.39219 19.8284 5.30059Z" fill="#FFF062"/>
<path d="M10.6748 41.616C6.40821 42.2794 7.91542 48.5387 11.3716 47.729C15.7155 46.713 14.4411 41.0307 10.6748 41.616Z" fill="#FFF062"/>
<path d="M43.6671 18.2239C45.1507 16.7266 44.0216 13.5234 41.7631 13.359C36.5167 12.9775 39.6762 22.2464 43.6671 18.2239Z" fill="#FFF062"/>
<path d="M54.5416 34.2951L54.0609 31.8851C52.384 31.3904 53.5211 33.4609 52.5937 34.0898L49.6556 34.2286L51.7912 36.2206L50.9891 38.6725C53.249 37.7844 53.6046 37.7826 55.8164 38.7999C54.8179 36.3807 56.0915 36.1088 57.3824 34.4302L54.5394 34.295L54.5416 34.2951Z" fill="#FFF062"/>
<path d="M19.1694 36.0933C16.5261 37.3705 19.3148 41.0612 21.4136 39.792C22.87 38.9116 21.6393 34.9008 19.1694 36.0933Z" fill="#FFF062"/>
<path d="M6.57655 18.3534C6.30094 16.4885 7.03208 15.7295 8.13412 14.4718L4.29995 13.3872L3.23142 17.2839C4.97459 16.2661 5.3041 17.4188 6.57649 18.3556L6.57655 18.3534Z" fill="#FFF062"/>
<path d="M40.6917 7.46797L41.7624 3.57137L38.4152 2.49736L37.3553 5.90364C38.9903 5.65689 39.578 6.58894 40.6917 7.46797Z" fill="#FFF062"/>
<path d="M27.4603 81.6175C27.0447 91.2113 12.9949 90.8383 13.088 81.2382C13.5037 71.6444 27.5535 72.0174 27.4603 81.6175Z" fill="#2E213D"/>
<path d="M51.0534 83.5559C50.6303 93.3479 36.2888 92.9672 36.385 83.1688C36.808 73.3767 51.1495 73.7574 51.0534 83.5559Z" fill="#2E213D"/>
</svg>
