<svg width="155" height="102" viewBox="0 0 155 102" fill="none" xmlns="http://www.w3.org/2000/svg">
<g clip-path="url(#clip0_1264_12047)">
<path d="M77.5012 102C120.304 102 155.002 91.4675 155.002 78.4751C155.002 65.4827 120.304 54.9503 77.5012 54.9503C34.6985 54.9503 0 65.4827 0 78.4751C0 91.4675 34.6985 102 77.5012 102Z" fill="#241832"/>
<path d="M36.4667 98.4346C48.3661 100.693 62.4289 102 77.4988 102C92.5687 102 106.753 100.682 118.685 98.4043C120.395 78.7295 117.856 56.761 118.692 41.1346C118.692 18.4171 100.251 0 77.5011 0C25.4716 0.984673 36.948 62.2911 36.4667 98.4346Z" fill="#FFF062"/>
<path d="M64.6065 28.8636C63.7093 36.9743 51.609 35.8473 52.2282 27.7109C53.1253 19.6002 65.2256 20.7272 64.6065 28.8636Z" fill="#2E213D"/>
<path d="M84.8516 31.8712C83.9357 40.1499 71.5854 38.9996 72.2186 30.6952C73.1345 22.4165 85.4847 23.5668 84.8516 31.8712Z" fill="#2E213D"/>
</g>
<defs>
<clipPath id="clip0_1264_12047">
<rect width="155" height="102" fill="white"/>
</clipPath>
</defs>
</svg>
