<?xml version="1.0" encoding="UTF-8"?>
<svg id="Vrstva_2" data-name="Vrstva 2" xmlns="http://www.w3.org/2000/svg" viewBox="0 0 663.41 437.14">
  <defs>
    <style>
      .cls-1 {
        fill: #2e213d;
      }

      .cls-2 {
        fill: #fff062;
      }
    </style>
  </defs>
  <g id="Vrstva_1-2" data-name="Vrstva 1">
    <g>
      <ellipse cx="331.71" cy="336.32" rx="331.71" ry="100.82"/>
      <path class="cls-2" d="M156.08,421.86c50.93,9.68,111.12,15.28,175.62,15.28s125.21-5.65,176.28-15.41c7.32-84.32-3.55-178.47.03-245.44C508.01,78.93,429.08,0,331.71,0,109.02,4.22,158.14,266.96,156.08,421.86Z"/>
      <path class="cls-1" d="M344.05,385.54c1.16,25.09-50.74,28.71-53.08,3.71-1.16-25.09,50.74-28.71,53.08-3.71Z"/>
      <path class="cls-1" d="M431.56,382.87c1.18,25.61-51.78,29.31-54.17,3.79-1.18-25.61,51.78-29.31,54.17-3.79Z"/>
    </g>
  </g>
</svg>