<?xml version="1.0" encoding="UTF-8"?>
<svg id="Vrstva_2" data-name="Vrstva 2" xmlns="http://www.w3.org/2000/svg" viewBox="0 0 663.41 437.14">
  <defs>
    <style>
      .cls-1 {
        fill: #2e213d;
      }

      .cls-2 {
        fill: #fff062;
      }
    </style>
  </defs>
  <g id="Vrstva_1-2" data-name="Vrstva 1">
    <g>
      <ellipse cx="331.71" cy="336.32" rx="331.71" ry="100.82"/>
      <path class="cls-2" d="M156.08,421.86c50.93,9.68,111.12,15.28,175.62,15.28s125.21-5.65,176.28-15.41c7.32-84.32-3.55-178.47.03-245.44C508.01,78.93,429.08,0,331.71,0,109.02,4.22,158.14,266.96,156.08,421.86Z"/>
      <path class="cls-1" d="M276.52,123.7c-3.84,34.76-55.63,29.93-52.98-4.94,3.84-34.76,55.63-29.93,52.98,4.94Z"/>
      <path class="cls-1" d="M363.17,136.59c-3.92,35.48-56.78,30.55-54.07-5.04,3.92-35.48,56.78-30.55,54.07,5.04Z"/>
    </g>
  </g>
</svg>