<?xml version="1.0" encoding="UTF-8"?>
<svg id="Vrstva_2" data-name="Vrstva 2" xmlns="http://www.w3.org/2000/svg" viewBox="0 0 269.76 290.41">
  <defs>
    <style>
      .cls-1 {
        fill: #2e213d;
      }

      .cls-2 {
        fill: #fff062;
      }
    </style>
  </defs>
  <g id="Vrstva_1-2" data-name="Vrstva 1">
    <g>
      <path class="cls-2" d="M93.39,289.11c-24.37-4.23-45.77-18.76-58.57-39.92C1.02,193.31-13.88,111.89,16.37,47.87c47.89-101.35,103.67-17.43,109.35,29.57,2.3,19.06-3.57,17.8,6.17,1.26C170.34,13.43,268.28-.93,269.68,50.97c2.41,89.54-51.85,194.04-123.9,230.64-16.12,8.19-34.57,10.59-52.39,7.5h0Z"/>
      <path class="cls-1" d="M57.07,116.48c-2.13,0-4.25-.6-6.16-1.84-12.45-8.07-15.64-25.33-14.6-43.33,1.17-20.37,10.11-29.66,25.37-29.97,11.18-.23,21.72,4.3,25.44,19.18,5.12,20.46,1.02,47.41-15.57,54.99-1.42.65-2.92.94-4.43.95l-10.04.03Z"/>
      <path class="cls-1" d="M169.45,129.26c-2.12-1.19-3.88-2.98-5.09-5.28-7.83-14.98-1.32-33.9,9.8-51.18,12.58-19.56,26.66-23.76,41.97-15.51,11.22,6.04,19.14,16.44,14.49,33.29-6.39,23.17-25.57,47.6-46.27,45.83-1.77-.15-3.43-.7-4.93-1.54l-9.98-5.6Z"/>
    </g>
  </g>
</svg>