<?xml version="1.0" encoding="UTF-8"?>
<svg id="Vrstva_2" data-name="Vrstva 2" xmlns="http://www.w3.org/2000/svg" viewBox="0 0 249.57 488.24">
  <defs>
    <style>
      .cls-1 {
        fill: #2e213d;
      }

      .cls-2 {
        fill: #fff062;
      }
    </style>
  </defs>
  <g id="Vrstva_1-2" data-name="Vrstva 1">
    <g>
      <path class="cls-2" d="M4.69,417.26c-.77-5.67-1.53-11.1-2.48-16.05,5.7-101.11-7.26-209.83.14-310.03C5.89,43.32,16.26,5.56,70.34,1.52c26.47-1.98,107.56-3.21,129.75,4.08,38.44,12.65,43.42,58.59,45.5,93.45,5.14,86.28,5.47,210.71,0,296.82-.43,6.71-1.05,14.42-2.12,22.49-5.35,40.46-40.36,70.39-81.16,69.87l-78.5-1c-40.06-.51-73.71-30.28-79.11-69.98Z"/>
      <path class="cls-1" d="M123.58,202.17c-2.06-.39-4.05-1.06-5.79-1.98-11.32-6.04-12.87-14.7-10.28-22.93,2.93-9.31,12.39-12.03,27.16-9.39,10.82,1.93,20.6,5.97,22.88,13.61,3.14,10.5-3.21,22.36-19.9,22.88-1.43.04-2.91-.09-4.36-.36l-9.7-1.82Z"/>
      <path class="cls-1" d="M195.35,200.71c-2.03.53-4.13.73-6.12.54-12.95-1.2-18.34-9.53-19.81-19.29-1.66-11.04,5.58-18.14,20.06-22.06,10.61-2.87,21.26-3.07,26.83,3.87,7.66,9.54,7.43,24.78-7.32,32.86-1.26.69-2.65,1.22-4.09,1.59l-9.55,2.48Z"/>
    </g>
  </g>
</svg>