<?xml version="1.0" encoding="UTF-8"?>
<svg id="Vrstva_2" data-name="Vrstva 2" xmlns="http://www.w3.org/2000/svg" viewBox="0 0 310.4 419.21">
  <defs>
    <style>
      .cls-1 {
        fill: #2e213d;
      }

      .cls-2 {
        fill: #fff062;
      }
    </style>
  </defs>
  <g id="Vrstva_1-2" data-name="Vrstva 1">
    <g>
      <path class="cls-2" d="M122.57,419.21c-12.48.03-24.87-2.68-36.07-8.21C13.65,375-4.99,297.97,1.06,217.63,7.91,126.72,60.21,85.28,149.5,83.88c65.41-1.03,127.05,19.18,148.82,85.58,29.94,91.3,5.94,211.55-91.09,245.38-8.32,2.9-17.1,4.21-25.91,4.23l-58.75.13Z"/>
      <path class="cls-2" d="M162.41,167.68c-4.36.01-8.68-1.34-12.59-4.1-25.43-18-31.93-56.52-29.82-96.69C122.38,21.44,140.64.72,171.81.02c22.83-.51,44.35,9.59,51.95,42.79,10.45,45.65,2.07,105.78-31.8,122.69-2.9,1.45-5.97,2.11-9.04,2.12l-20.51.07Z"/>
      <path class="cls-1" d="M173.21,104.52c-2.22,0-4.42-.62-6.41-1.9-12.94-8.32-16.26-26.12-15.18-44.69,1.22-21.01,10.51-30.59,26.37-30.91,11.62-.24,22.57,4.43,26.44,19.78,5.32,21.1,1.06,48.89-16.18,56.71-1.48.67-3.04.97-4.6.98l-10.44.03Z"/>
      <path class="cls-2" d="M87.5,197.57c-4.16,1.31-8.69,1.3-13.24-.18-29.63-9.64-47.28-44.48-57.19-83.47-11.22-44.11.06-69.32,29.61-79.24,21.65-7.27,45.19-4.01,62.31,25.43,23.54,40.48,33.4,100.39,6.08,126.6-2.34,2.25-5.08,3.79-8.01,4.71l-19.56,6.15Z"/>
      <path class="cls-1" d="M73.91,144.21c-2.23.7-4.65.76-7.05.1-15.65-4.33-24.56-21.22-29.29-40.26-5.36-21.55,1-34.1,16.88-39.4,11.63-3.88,24.13-2.61,32.83,11.64,11.97,19.59,16.38,48.92,1.47,62.2-1.28,1.14-2.76,1.93-4.33,2.43l-10.5,3.3Z"/>
    </g>
  </g>
</svg>