<?xml version="1.0" encoding="UTF-8"?>
<svg id="Vrstva_2" data-name="Vrstva 2" xmlns="http://www.w3.org/2000/svg" viewBox="0 0 309.93 1054.16">
  <defs>
    <style>
      .cls-1 {
        fill: #2e213d;
      }

      .cls-2 {
        fill: #fff062;
      }
    </style>
  </defs>
  <g id="Vrstva_1-2" data-name="Vrstva 1">
    <g>
      <g>
        <path class="cls-2" d="M165,1054.13c31.56.74,61.83-11.59,84.6-33.45.14-.13.27-.26.41-.39,28.61-27.19,35.69-74.37,37.64-112.09,10-193.12-22.95-397.81-30.9-592.22-.88-21.64,4.33-80.89-6.78-96.7-6.46-9.18-16.07-6.38-20.68,2.99-6.71,13.65,2.11,31.14-16.36,38.8-19.78-11.46,13.17-42.08,2.26-59.32-25.48-15.71-16.09,39.51-22.07,43.82-20.34,2.55-18.84-25.68-17.47-39.52,3.01-30.32,25.53-75.79,21.61-103.62-.36-2.52-3.21-10.16-4.82-11.67-6.88-6.45-16.89-2.01-21.46,4.92-12.37,18.78-4.37,90.25-6.64,116.67-.76,8.9-2.83,30.98-16.02,27.25-6.98-3.31-7.69-15.58-8.24-22.74-2.22-28.91,6.55-104.2-6.82-125.29-5.8-9.15-16.87-10.12-24.02-1.99-18.26,20.71,11.48,85.96,15.21,112.09,1.67,11.74,4.44,45.28-14.06,44.79-25.9-.69,7.45-66.87-19.69-63.83-25.47,2.86-3.27,78.06-10.04,83.69l-6.42-.08c-4.24-2.61,2.66-64.47-24.52-43.02-17.08,13.48-5.18,72.31-4.25,92.67,9.15,200.86-38.94,398.89-26.38,601.09,3.41,54.94,22.11,103.56,74.01,128.57,1.92.92,5.38,2.01,9.02,3.07,9.82,2.88,19.97,4.47,30.2,4.71l32.71.77Z"/>
        <path class="cls-2" d="M210.6,152.93c5.66-6,13.11-21.73,16.49-29.75,5.45-12.95,9.95-49.19,28.14-45.87,20.51,3.75,12.11,29.66-4.99,30.51-.23,5.59,6.39,10.05,11,12.11,47.8,21.34,70.16-62.09,21.33-85.19-31.3-14.8-66.65,2.37-71.72,36.97-4.14,28.28.81,58.81-13.49,85.63-1.26,8.18,11.25-2.3,13.23-4.4Z"/>
        <path class="cls-2" d="M33.77,149.2c20.83,6.29,33.73-17.02,59.53-.2,3.84,2.5,5.62,7.58,9.39,9.44-.25-30.36-32.1-54.61-61.79-47.48-19.55,4.7-20.43,34.22-7.13,38.24Z"/>
        <path class="cls-2" d="M118.24,78.21c31.43-4.27,23.57-53.69-9.51-46.98-26.95,5.47-21.27,51.16,9.51,46.98Z"/>
        <path class="cls-2" d="M290.72,185.13c-18.85-11.14-45.18,2.5-55.89,19.53,19.43-4.63,35.91,23.47,54.88,11.95,11.29-6.86,12.74-24.55,1.01-31.48Z"/>
        <path class="cls-2" d="M17.95,180.38c4.24.1,11.04,10.2,16.34.87l-2.13-10.52c.19-2.5,6.97-.22,6.31-8.46-.84-10.54-12.63-1.04-13.12-14.53h-10.42c-.18,12.6-12.62,5.41-14.82,15.04-1.15,5.06,6.73,5.6,7.73,6.99,1.2,1.66-6.15,12.1,1.55,14.85,8.28,2.96,7.48-4.26,8.56-4.23Z"/>
        <path class="cls-2" d="M86.64,23.48c12.67-15.7-11.58-32.15-21.51-18.24-10.02,14.03,10.08,32.41,21.51,18.24Z"/>
        <path class="cls-2" d="M49.3,187.41c-19.36,3.48-11.74,31.37,3.91,27.33,19.67-5.07,13.18-30.4-3.91-27.33Z"/>
        <path class="cls-2" d="M196.81,78.61c6.58-6.89,1.05-21.12-9.26-21.59-23.95-1.09-8.44,40.1,9.26,21.59Z"/>
        <path class="cls-2" d="M248.29,149.39l-2.48-10.75c-7.7-2.02-2.27,7.13-6.42,10.06l-13.37.97,9.97,8.68-3.36,11.09c10.19-4.25,11.81-4.3,22.01,0-4.84-10.73.93-12.1,6.61-19.78l-12.97-.27Z"/>
        <path class="cls-2" d="M87.34,161.64c-11.89,6.04,1.26,22.26,10.67,16.32,6.53-4.12.44-21.96-10.67-16.32Z"/>
        <path class="cls-2" d="M27.83,83.58c-1.48-8.33,1.76-11.82,6.63-17.59l-17.6-4.41-4.4,17.6c7.82-4.77,9.46.36,15.37,4.41Z"/>
        <path class="cls-2" d="M181.96,30.73l4.41-17.6-15.38-4.42-4.42,15.4c7.42-1.3,10.21,2.81,15.39,6.62Z"/>
      </g>
      <path class="cls-1" d="M130.59,364.8c-.74,43.07-64.8,43.06-65.53,0,.74-43.07,64.8-43.06,65.53,0Z"/>
      <path class="cls-1" d="M238.32,370.7c-.75,43.96-66.14,43.95-66.88,0,.75-43.96,66.14-43.95,66.88,0Z"/>
    </g>
  </g>
</svg>