<?xml version="1.0" encoding="UTF-8"?>
<svg id="Vrstva_2" data-name="Vrstva 2" xmlns="http://www.w3.org/2000/svg" viewBox="0 0 382.7 326.2">
  <defs>
    <style>
      .cls-1 {
        fill: #2e213d;
      }

      .cls-2 {
        fill: #fff062;
      }
    </style>
  </defs>
  <g id="Vrstva_1-2" data-name="Vrstva 1">
    <g>
      <path class="cls-2" d="M272.39,52.39l7.63,29.31,34.57,3.75c72.3,7.84,93.78,90.32,31.34,120.36l-29.86,14.37,7.63,29.31c15.96,61.3-68.05,101.72-122.6,58.99l-26.08-20.43-29.86,14.37c-62.44,30.04-135.84-27.45-107.11-83.9l13.74-26.99-26.08-20.43c-54.55-42.73-15.9-118.69,56.41-110.85l34.57,3.75,13.74-26.99c28.73-56.45,126.01-45.9,141.97,15.39Z"/>
      <path class="cls-1" d="M167.64,150.71c-2.26-.83-4.37-2.03-6.12-3.53-11.39-9.78-10.9-21.5-5.76-32.01,5.81-11.9,17.37-14.03,33.62-8.24,11.9,4.24,22.06,11.12,22.66,21.61.83,14.42-9.56,29.16-28.84,27.26-1.65-.16-3.31-.57-4.91-1.16l-10.65-3.92Z"/>
      <path class="cls-1" d="M258.31,173.09c-2.41,0-4.8-.46-6.96-1.4-14.05-6.13-17.65-19.24-16.48-32.91,1.32-15.47,11.41-22.52,28.63-22.76,12.62-.17,24.51,3.26,28.71,14.56,5.77,15.54,1.15,36-17.57,41.76-1.6.49-3.3.72-5,.72l-11.33.02Z"/>
    </g>
  </g>
</svg>