<?xml version="1.0" encoding="UTF-8"?>
<svg id="Vrstva_2" data-name="Vrstva 2" xmlns="http://www.w3.org/2000/svg" viewBox="0 0 310.4 335.37">
  <defs>
    <style>
      .cls-1 {
        fill: #2e213d;
      }

      .cls-2 {
        fill: #fff062;
      }
    </style>
  </defs>
  <g id="Vrstva_1-2" data-name="Vrstva 1">
    <g>
      <path class="cls-2" d="M122.57,335.37c-12.48.03-24.87-2.68-36.07-8.21C13.65,291.16-4.99,214.12,1.06,133.79,7.91,42.88,60.21,1.44,149.5.04c65.41-1.03,127.05,19.18,148.82,85.58,29.94,91.3,5.94,211.55-91.09,245.38-8.32,2.9-17.1,4.21-25.91,4.23l-58.75.13Z"/>
      <path class="cls-1" d="M173.22,198.01c-3.43,0-6.84-.96-9.91-2.93-20.02-12.87-25.14-40.41-23.48-69.13,1.88-32.5,16.26-47.31,40.79-47.81,17.98-.37,34.92,6.86,40.9,30.59,8.23,32.64,1.63,75.63-25.03,87.72-2.29,1.04-4.7,1.51-7.12,1.51l-16.14.05Z"/>
    </g>
  </g>
</svg>