<?xml version="1.0" encoding="UTF-8"?>
<svg id="Vrstva_2" data-name="Vrstva 2" xmlns="http://www.w3.org/2000/svg" viewBox="0 0 323.76 254.02">
  <defs>
    <style>
      .cls-1 {
        fill: #2e213d;
      }

      .cls-2 {
        fill: #fff062;
      }
    </style>
  </defs>
  <g id="Vrstva_1-2" data-name="Vrstva 1">
    <g>
      <path class="cls-2" d="M42.38,13.19c3.69-.95,7.23-1.87,10.44-2.97C119.59,12.76,190.48-3.56,256.73.72c31.65,2.05,56.97,11.23,62.18,65.12,2.55,26.37,7.19,107.34,3.44,129.73-6.5,38.79-36.49,45.19-59.31,48.35-56.5,7.82-138.33,12.02-195.22,9.23-4.43-.22-9.53-.6-14.89-1.42-26.86-4.08-48.2-38.12-49.79-78.9L.09,94.39C-1.46,54.36,16.53,19.82,42.38,13.19Z"/>
      <path class="cls-1" d="M114.81,94.57c-2.06-.39-4.04-1.14-5.75-2.24-11.11-7.15-12.22-18.16-9.16-28.85,3.45-12.1,13.15-16.07,27.93-13.48,10.83,1.9,20.49,6.56,22.39,16.23,2.61,13.29-4.43,28.83-21.32,30.38-1.45.13-2.93.04-4.39-.23l-9.7-1.81Z"/>
      <path class="cls-1" d="M186.58,93.11c-2.03.53-4.14.69-6.15.42-13.09-1.74-18.78-11.24-20.56-22.21-2.02-12.42,5.06-20.14,19.54-24.08,10.61-2.89,21.33-2.78,27.16,5.16,8.02,10.92,8.26,27.97-6.37,36.57-1.25.74-2.64,1.28-4.07,1.65l-9.55,2.49Z"/>
    </g>
  </g>
</svg>