<?xml version="1.0" encoding="UTF-8"?>
<svg id="Vrstva_2" data-name="Vrstva 2" xmlns="http://www.w3.org/2000/svg" viewBox="0 0 311.64 338.19">
  <defs>
    <style>
      .cls-1 {
        fill: #2e213d;
      }

      .cls-2 {
        fill: #fff062;
      }
    </style>
  </defs>
  <g id="Vrstva_1-2" data-name="Vrstva 1">
    <g>
      <path class="cls-2" d="M206.11,6.41c12.42,1.27,24.46,5.24,35.02,11.9,68.73,43.36,79.28,121.91,64.94,201.19-16.23,89.71-72.55,125.5-161.49,117.65-65.17-5.76-124.38-32.24-139.15-100.54C-14.89,142.69,21.44,25.57,121.45,1.98,130.03-.04,138.9-.44,147.67.45l58.44,5.96Z"/>
      <path class="cls-1" d="M105.38,187.44c-8.93,2.62-18.57,1.28-26.4-3.74-20.7-13.24-39.26-38.25-39.69-64.89-.68-42.17,32.1-23.11,41.83-8.19,3.94,6.05,1.75,6.6,2.29-.6,2.13-28.42,32.8-49.55,41.9-32.26,15.7,29.82,14.75,74.12-3.49,98.45-4.08,5.44-9.91,9.32-16.44,11.24h0Z"/>
      <path class="cls-1" d="M214.25,195.55c-9.17-1.59-17.22-7.06-22.04-15.02-12.72-21.03-18.32-51.66-6.94-75.75,18.02-38.13,39.01-6.56,41.14,11.13.87,7.17-1.34,6.7,2.32.47,14.47-24.56,51.32-29.96,51.84-10.43.91,33.69-19.51,73.01-46.62,86.78-6.07,3.08-13.01,3.98-19.71,2.82h0Z"/>
    </g>
  </g>
</svg>