<?xml version="1.0" encoding="UTF-8"?>
<svg id="Vrstva_2" data-name="Vrstva 2" xmlns="http://www.w3.org/2000/svg" viewBox="0 0 310.4 355.04">
  <defs>
    <style>
      .cls-1 {
        fill: #2e213d;
      }

      .cls-2 {
        fill: #fff062;
      }
    </style>
  </defs>
  <g id="Vrstva_1-2" data-name="Vrstva 1">
    <g>
      <path class="cls-2" d="M122.57,355.04c-12.48.03-24.87-2.68-36.07-8.21C13.65,310.83-4.99,233.79,1.06,153.46,7.91,62.55,60.21,21.11,149.5,19.71c65.41-1.03,127.05,19.18,148.82,85.58,29.94,91.3,5.94,211.55-91.09,245.38-8.32,2.9-17.1,4.21-25.91,4.23l-58.75.13Z"/>
      <path class="cls-1" d="M200.17,203.99c-3.41-.39-6.7-1.54-9.58-3.44-18.71-12.37-21.28-34.43-17-56.64,4.84-25.12,20.47-35,44.89-32.53,17.89,1.81,34.05,9.41,37.83,28.62,5.19,26.41-5.29,59.16-32.88,65.48-2.36.54-4.81.63-7.21.35l-16.04-1.84Z"/>
      <path class="cls-1" d="M98.69,205.36c-3.43,0-6.84-.83-9.91-2.55-20.02-11.19-25.14-35.12-23.48-60.08,1.88-28.25,16.26-41.12,40.79-41.55,17.98-.32,34.92,5.96,40.9,26.59,8.23,28.36,1.63,65.73-25.03,76.24-2.29.9-4.7,1.31-7.12,1.32l-16.14.04Z"/>
      <path class="cls-2" d="M45.46,48.37c-.77-9.7-1.81-26.16,0-36.57.95-5.48,6.31-7.67,9.02-2.81,9.45,16.94,26.17,25.1,33.32,35.69,2.14,3.17.35,9.59-4.6,9.59h-31.85c-3.26,0-5.64-2.65-5.89-5.9Z"/>
      <path class="cls-2" d="M234.35,52.73c8.37,8.91,22.83,23.73,34.54,30.19,6.17,3.4,13.78-1.14,11.99-8.37-6.21-25.17,3.39-51.71.79-68.92-.78-5.15-8.69-8.33-13.81-2.47l-32.97,37.73c-3.37,3.86-3.34,8.87-.54,11.85Z"/>
    </g>
  </g>
</svg>