<?xml version="1.0" encoding="UTF-8"?>
<svg id="Vrstva_2" data-name="Vrstva 2" xmlns="http://www.w3.org/2000/svg" viewBox="0 0 344.12 661.01">
  <defs>
    <style>
      .cls-1 {
        fill: #2e213d;
      }

      .cls-2 {
        fill: #fff062;
      }
    </style>
  </defs>
  <g id="Vrstva_1-2" data-name="Vrstva 1">
    <g>
      <path class="cls-2" d="M213.67,660.98c-10.56.23-21.15-.79-31.36-3.5-67-17.83-89.02-90.65-92.61-156.81-4.03-110.99-5.42-243.88,22.9-351.93.68-2.61-.36-5.36-2.63-6.83h0c-.92-.6-1.98-.96-3.07-1.02-11.73-.63-22.53,1.33-33.41,2.72-8.7,1.11-50.72,12.64-67.52,15.13-3.76.56-6.86-3-5.71-6.62,9.34-29.31,73.25-41.87,111.56-52,11.6-3.07,21.03-11.42,25.67-22.48,54.54-130.02,187.25-87.41,176.71,58.47-.02.28-.24.53-.24.81-.28,12.65-2.21,30.11-2.97,36.26-8.02,64.98-21.81,113.69-9.98,180.33,10.77,53.16,38.34,120.35,42.8,180.18,5.05,67.7-48.49,125.52-116.36,126.98l-13.76.3Z"/>
      <path class="cls-1" d="M175.8,55.98c.65.26,1.19.78,1.56,1.54,2.4,4.99.39,12.8-3.02,20.42-3.87,8.62-8.18,11.53-12.88,9.8-3.44-1.26-5.87-4.49-4.43-11.35,1.97-9.42,7.86-20.52,14.21-21.76.54-.11,1.05-.05,1.51.13l3.06,1.21Z"/>
      <path class="cls-1" d="M199.61,64.85c.74.26,1.39.78,1.87,1.55,3.11,5.04,1.59,12.98-1.51,20.73-3.51,8.77-8.04,11.75-13.4,10.04-3.93-1.25-6.91-4.51-5.94-11.48,1.33-9.57,6.87-20.87,13.8-22.18.59-.11,1.16-.06,1.69.12l3.5,1.2Z"/>
    </g>
  </g>
</svg>