<?xml version="1.0" encoding="UTF-8"?>
<svg id="Vrstva_2" data-name="Vrstva 2" xmlns="http://www.w3.org/2000/svg" viewBox="0 0 432.29 321.73">
  <defs>
    <style>
      .cls-1 {
        fill: #2e213d;
      }

      .cls-2 {
        fill: #fff062;
      }
    </style>
  </defs>
  <g id="Vrstva_1-2" data-name="Vrstva 1">
    <g>
      <path class="cls-2" d="M74.23,280.04c-1.1-3.66-2.18-7.17-3.48-10.34,4.2-66.28-14.69-136.56-8.38-202.33,3.02-31.42,14.69-56.6,80.91-62.04,32.4-2.66,131.82-7.67,159.24-4.06,47.5,6.26,54.87,35.99,58.38,58.63,8.69,56.04,12.53,137.23,8.19,193.7-.34,4.4-.89,9.47-1.98,14.79-5.44,26.68-47.55,48.03-97.61,49.81l-96.3,3.42c-49.15,1.74-91.24-15.94-98.96-41.57Z"/>
      <path class="cls-2" d="M143.4,157.57c1.56,6.13,2.01,12.49,1.18,18.55-5.45,39.44-34.15,56.44-67.25,61.65-37.45,5.9-60.63-15.57-72.29-59.26C-3.5,146.49-3.02,114.16,21.01,96.71c33.04-24,84.44-24.46,110.11,19.74,2.2,3.79,3.82,7.97,4.92,12.29l7.35,28.83Z"/>
      <path class="cls-2" d="M427.26,186.72c-.94,6.25-3,12.29-6.13,17.54-20.35,34.22-53.4,38.72-85.92,30.65-36.8-9.13-49.81-37.91-43.56-82.71,4.58-32.82,17.59-62.41,46.52-69.15,39.77-9.26,87.31,10.29,93.78,61,.55,4.35.42,8.83-.24,13.24l-4.44,29.42Z"/>
      <path class="cls-1" d="M396.91,175.98c-.66,3.41-1.92,6.68-3.75,9.49-11.92,18.33-30.16,20.07-47.83,14.93-19.99-5.82-26.5-21.9-22.08-46.34,3.24-17.91,11.03-33.86,27.05-36.92,22.03-4.21,47.68,7.57,50.12,35.54.21,2.4.04,4.85-.42,7.26l-3.08,16.05Z"/>
      <path class="cls-1" d="M102.55,149.25c.99,3.33,1.37,6.81,1.03,10.15-2.17,21.76-17.56,31.69-35.62,35.24-20.43,4.02-33.6-7.27-40.91-31.01-5.36-17.39-5.77-35.14,7.06-45.22,17.63-13.86,45.83-15.19,60.84,8.53,1.29,2.03,2.26,4.29,2.96,6.64l4.64,15.67Z"/>
    </g>
  </g>
</svg>